<svg width="16" height="16" viewBox="0 0 16 16" fill="none" xmlns="http://www.w3.org/2000/svg">
<g clip-path="url(#clip0_2060_4824)">
<path d="M7.2795 1.9118C7.35287 1.78591 7.45796 1.68145 7.58429 1.60885C7.71063 1.53625 7.85379 1.49805 7.9995 1.49805C8.14521 1.49805 8.28838 1.53625 8.41471 1.60885C8.54105 1.68145 8.64614 1.78591 8.7195 1.9118L10.5828 5.11047L14.2015 5.89447C14.3438 5.9254 14.4756 5.9931 14.5836 6.09083C14.6916 6.18855 14.7721 6.31288 14.8171 6.45142C14.8621 6.58996 14.87 6.73788 14.84 6.88042C14.81 7.02296 14.7432 7.15515 14.6462 7.2638L12.1795 10.0245L12.5528 13.7078C12.5676 13.8528 12.544 13.9992 12.4845 14.1323C12.4249 14.2654 12.3315 14.3805 12.2136 14.4662C12.0956 14.5519 11.9573 14.6051 11.8123 14.6206C11.6674 14.6361 11.5209 14.6133 11.3875 14.5545L7.9995 13.0611L4.6115 14.5545C4.47811 14.6133 4.33163 14.6361 4.18667 14.6206C4.04171 14.6051 3.90336 14.5519 3.78542 14.4662C3.66748 14.3805 3.57408 14.2654 3.51455 14.1323C3.45502 13.9992 3.43144 13.8528 3.44617 13.7078L3.8195 10.0245L1.35284 7.26447C1.25565 7.15582 1.18867 7.02358 1.15858 6.88095C1.12848 6.73832 1.13633 6.59029 1.18133 6.45164C1.22633 6.31299 1.30692 6.18857 1.41504 6.0908C1.52316 5.99303 1.65504 5.92534 1.7975 5.89447L5.41617 5.11047L7.2795 1.9118Z" fill="#FFCD5D"/>
</g>
<defs>
<clipPath id="clip0_2060_4824">
<rect width="16" height="16" fill="white"/>
</clipPath>
</defs>
</svg>
